<svg id="haned" xmlns="http://www.w3.org/2000/svg" width="130" height="143" viewBox="0 0 130 143">
  <g id="Group_10" data-name="Group 10" transform="translate(0 0)">
    <path id="Fill_35" data-name="Fill 35" d="M45.3,59.546H20.791a4.957,4.957,0,0,1-4.351-7.32L1.559,37.305a5.331,5.331,0,1,1,7.528-7.549l4.375,4.308a.065.065,0,0,0,.018.02.086.086,0,0,0,.013.012,1.467,1.467,0,0,0,1.073.462,1.5,1.5,0,0,0,1.5-1.488V5.337a5.326,5.326,0,1,1,10.651,0V18.105a5.074,5.074,0,0,1,2.467-.648,5.349,5.349,0,0,1,4.64,2.83,5.275,5.275,0,0,1,3.156-1.048,5.349,5.349,0,0,1,4.575,2.622A5.308,5.308,0,0,1,50.09,25.85c0,.014,0,.028.005.043a.669.669,0,0,1,.007.085V45.989a6.462,6.462,0,0,1-1.893,4.583A4.959,4.959,0,0,1,45.3,59.546ZM20.791,52.487a2.1,2.1,0,0,0,0,4.193H45.3a2.1,2.1,0,0,0,0-4.193ZM5.322,31.059A2.475,2.475,0,0,0,3.578,35.28L18.467,50.206a4.928,4.928,0,0,1,2.323-.585H43.621a3.632,3.632,0,0,0,3.624-3.632V26.107a2.467,2.467,0,1,0-4.935-.006v2.906a1.429,1.429,0,1,1-2.859,0V24.58a2.468,2.468,0,1,0-4.936,0v2.77a1.429,1.429,0,1,1-2.859,0V22.924a2.471,2.471,0,1,0-4.936,0V26.2a1.428,1.428,0,1,1-2.856,0V5.337a2.469,2.469,0,1,0-4.938,0v27.74a4.351,4.351,0,0,1-7.456,3.043s0,0-.007-.006l-.007-.005L7.077,31.79A2.461,2.461,0,0,0,5.322,31.059Z" transform="translate(32.857 6.352)" fill="#00e676"/>
    <path id="Fill_36" data-name="Fill 36" d="M44.39,23.243V43.125a3.631,3.631,0,0,1-3.624,3.632H17.935a4.9,4.9,0,0,0-2.324.586L.722,32.416a2.471,2.471,0,1,1,3.5-3.491L8.6,33.244s.013.008.014.012a4.352,4.352,0,0,0,7.456-3.043V2.473a2.469,2.469,0,1,1,4.938,0V23.337a1.428,1.428,0,1,0,2.855,0V20.059a2.471,2.471,0,1,1,4.935,0v4.426a1.429,1.429,0,1,0,2.859,0v-2.77a2.468,2.468,0,1,1,4.935,0v4.427a1.429,1.429,0,1,0,2.859,0V23.236a2.468,2.468,0,1,1,4.935.007" transform="translate(35.713 9.217)" fill="#00e676" opacity="0.403"/>
    <path id="Fill_37" data-name="Fill 37" d="M.881,4.107a1.429,1.429,0,0,0,1.343.943,1.407,1.407,0,0,0,.488-.088,1.434,1.434,0,0,0,.856-1.835L2.774.943a1.43,1.43,0,1,0-2.687.98L.881,4.107" transform="translate(49.428 0)" fill="#00e676"/>
    <path id="Fill_38" data-name="Fill 38" d="M.715,2.673,2.724,3.836A1.431,1.431,0,0,0,4.153,1.356L2.145.192A1.432,1.432,0,0,0,.715,2.673" transform="translate(44.225 4.376)" fill="#00e676"/>
    <path id="Fill_39" data-name="Fill 39" d="M1.427,3.269a1.321,1.321,0,0,0,.25-.022l2.285-.4a1.432,1.432,0,0,0-.5-2.821l-2.285.4a1.432,1.432,0,0,0,.246,2.843" transform="translate(43.047 10.676)" fill="#00e676"/>
    <path id="Fill_40" data-name="Fill 40" d="M.022,1.184a1.429,1.429,0,0,0,1.16,1.658l2.285.4a1.3,1.3,0,0,0,.248.022A1.433,1.433,0,0,0,3.961.426L1.677.022A1.429,1.429,0,0,0,.022,1.184" transform="translate(60.318 10.677)" fill="#00e676"/>
    <path id="Fill_41" data-name="Fill 41" d="M1.431,4.029a1.416,1.416,0,0,0,.712-.193L4.152,2.674A1.432,1.432,0,0,0,2.723.192L.716,1.355a1.433,1.433,0,0,0,.716,2.674" transform="translate(59.413 4.376)" fill="#00e676"/>
    <path id="Fill_42" data-name="Fill 42" d="M.94,4.963a1.4,1.4,0,0,0,.49.088,1.433,1.433,0,0,0,1.343-.942l.793-2.185A1.429,1.429,0,1,0,.88.943L.087,3.128A1.43,1.43,0,0,0,.94,4.963" transform="translate(55.428 0)" fill="#00e676"/>
    <path id="Fill_43" data-name="Fill 43" d="M1.429,0A1.432,1.432,0,0,0,0,1.433V74.1a1.429,1.429,0,1,0,2.859,0V1.433A1.432,1.432,0,0,0,1.429,0" transform="translate(52.102 66.77)" fill="#00e676"/>
    <path id="Fill_44" data-name="Fill 44" d="M1.428,0A1.43,1.43,0,0,0,0,1.433V74.1a1.428,1.428,0,1,0,2.857,0V1.433A1.431,1.431,0,0,0,1.428,0" transform="translate(76.853 66.77)" fill="#00e676"/>
    <path id="Fill_45" data-name="Fill 45" d="M41.974,55.249H19.323a4.7,4.7,0,0,1-4.685-4.7,4.634,4.634,0,0,1,.529-2.157L1.468,34.664a5.062,5.062,0,0,1,0-7.129,5.025,5.025,0,0,1,7.113,0l4.042,3.982s0,0,.006.006l.006.008.007.006.012.011a1.251,1.251,0,0,0,.912.389,1.275,1.275,0,0,0,1.284-1.263V5.043a5.03,5.03,0,1,1,10.06,0V16.668a4.784,4.784,0,0,1,2.171-.531A5.056,5.056,0,0,1,31.4,18.7a5,5,0,0,1,7.146,1.452,4.968,4.968,0,0,1,2.938-.96A5.022,5.022,0,0,1,46.5,24l0,.011a.605.605,0,0,1,.014.109V42.609a6.1,6.1,0,0,1-1.7,4.222,4.691,4.691,0,0,1-2.843,8.417Zm-22.65-6.527a1.831,1.831,0,0,0,0,3.663h22.65a1.831,1.831,0,0,0,0-3.663Zm-14.3-19.8a2.148,2.148,0,0,0-1.532.635,2.185,2.185,0,0,0,0,3.08l13.7,13.737a4.617,4.617,0,0,1,2.13-.519h21.1a3.248,3.248,0,0,0,3.241-3.249V24.237a2.174,2.174,0,0,0-4.348-.017v2.694a1.429,1.429,0,1,1-2.858,0v-4.09a2.172,2.172,0,1,0-4.345-.005v2.569a1.429,1.429,0,1,1-2.858,0V21.295a2.174,2.174,0,1,0-4.342-.005v3.033a1.429,1.429,0,1,1-2.859,0V5.043a2.172,2.172,0,1,0-4.345,0V30.674a4.13,4.13,0,0,1-7.068,2.9.061.061,0,0,0-.011-.011l-.008-.007-4.05-3.99A2.169,2.169,0,0,0,5.023,28.925Z" transform="translate(0 43.434)" fill="#00e676"/>
    <path id="Fill_46" data-name="Fill 46" d="M40.805,21.372V39.744a3.249,3.249,0,0,1-3.241,3.249h-21.1a4.624,4.624,0,0,0-2.129.519L.634,29.774A2.175,2.175,0,1,1,3.714,26.7l4.051,3.99.02.018a4.13,4.13,0,0,0,7.067-2.9V2.177a2.173,2.173,0,1,1,4.345,0v19.28a1.429,1.429,0,1,0,2.859,0V18.424a2.174,2.174,0,1,1,4.342,0v4.094a1.429,1.429,0,1,0,2.858,0V19.953a2.173,2.173,0,1,1,4.345.006v4.092a1.429,1.429,0,1,0,2.858,0v-2.7a2.174,2.174,0,0,1,4.348.017" transform="translate(2.855 46.3)" fill="#00e676" opacity="0.403"/>
    <path id="Fill_47" data-name="Fill 47" d="M1.43,0A1.431,1.431,0,0,0,0,1.433V41.6a1.429,1.429,0,1,0,2.859,0V1.433A1.431,1.431,0,0,0,1.43,0" transform="translate(17.783 99.271)" fill="#00e676"/>
    <path id="Fill_48" data-name="Fill 48" d="M1.429,0A1.432,1.432,0,0,0,0,1.433V41.6a1.429,1.429,0,1,0,2.858,0V1.433A1.43,1.43,0,0,0,1.429,0" transform="translate(40.655 99.271)" fill="#00e676"/>
    <path id="Fill_49" data-name="Fill 49" d="M41.975,55.249H19.324A4.691,4.691,0,0,1,15.169,48.4L1.469,34.664a5.058,5.058,0,0,1,0-7.129,5.017,5.017,0,0,1,7.114,0l4.04,3.982c.006,0,.009.006.013.013a.039.039,0,0,0,.009.008l.01.009a1.252,1.252,0,0,0,.91.389,1.288,1.288,0,0,0,.91-.371,1.254,1.254,0,0,0,.374-.893V5.043a5.031,5.031,0,1,1,10.062,0V16.668a4.79,4.79,0,0,1,2.171-.531A5.062,5.062,0,0,1,31.4,18.7a5,5,0,0,1,7.146,1.452A5.014,5.014,0,0,1,46.508,24c0,.017,0,.034.005.052a.534.534,0,0,1,.006.069V42.609a6.1,6.1,0,0,1-1.7,4.222,4.692,4.692,0,0,1-2.847,8.417ZM19.324,48.721a1.831,1.831,0,0,0,0,3.663H41.975a1.831,1.831,0,0,0,0-3.663ZM5.03,28.92a2.18,2.18,0,0,0-1.54,3.72L17.2,46.377a4.632,4.632,0,0,1,2.131-.519h21.1a3.247,3.247,0,0,0,3.239-3.249V24.237a2.172,2.172,0,0,0-4.343-.023v2.7a1.428,1.428,0,1,1-2.856,0v-4.09a2.173,2.173,0,0,0-4.347-.012v2.576a1.429,1.429,0,1,1-2.858,0V21.295a2.176,2.176,0,1,0-4.346,0v3.028a1.429,1.429,0,1,1-2.859,0V5.043a2.172,2.172,0,1,0-4.345,0V30.671a4.13,4.13,0,0,1-7.068,2.905.041.041,0,0,0-.011-.011.036.036,0,0,1-.009-.008l-4.05-3.99A2.155,2.155,0,0,0,5.03,28.92Z" transform="translate(82.269 43.434)" fill="#00e676"/>
    <path id="Fill_50" data-name="Fill 50" d="M40.8,21.373V39.745a3.247,3.247,0,0,1-3.237,3.249h-21.1a4.638,4.638,0,0,0-2.129.519L.634,29.775a2.179,2.179,0,0,1,1.539-3.719,2.156,2.156,0,0,1,1.54.647l4.051,3.99c.006.007.014.009.02.02a4.131,4.131,0,0,0,7.068-2.9V2.178a2.172,2.172,0,1,1,4.344,0v19.28a1.429,1.429,0,1,0,2.859,0V18.43a2.176,2.176,0,1,1,4.345,0v4.094a1.429,1.429,0,1,0,2.858,0V19.947a2.173,2.173,0,0,1,4.346.013v4.09a1.428,1.428,0,1,0,2.857,0v-2.7a2.171,2.171,0,0,1,4.342.023" transform="translate(85.126 46.299)" fill="#00e676" opacity="0.403"/>
    <path id="Fill_51" data-name="Fill 51" d="M1.429,0A1.431,1.431,0,0,0,0,1.433V41.6a1.428,1.428,0,1,0,2.857,0V1.433A1.429,1.429,0,0,0,1.429,0" transform="translate(100.054 99.271)" fill="#00e676"/>
    <path id="Fill_52" data-name="Fill 52" d="M1.429,0A1.431,1.431,0,0,0,0,1.433V41.6a1.428,1.428,0,1,0,2.857,0V1.433A1.429,1.429,0,0,0,1.429,0" transform="translate(122.927 99.271)" fill="#00e676"/>
    <path id="Fill_53" data-name="Fill 53" d="M0,40.062H3.669V0H0Z" transform="translate(20.642 100.705)" fill="#00e676" opacity="0.403"/>
    <path id="Fill_54" data-name="Fill 54" d="M0,40.064H4.277V0H0Z" transform="translate(102.911 100.755)" fill="#00e676" opacity="0.403"/>
    <path id="Fill_55" data-name="Fill 55" d="M0,72.712H4.644V0H0Z" transform="translate(54.96 68.055)" fill="#00e676" opacity="0.403"/>
  </g>
</svg>
