<svg id="home" xmlns="http://www.w3.org/2000/svg" width="130" height="129" viewBox="0 0 130 129">
  <g id="Group_12" data-name="Group 12" transform="translate(0 0)">
    <path id="Fill_89" data-name="Fill 89" d="M49.68,0H6.35L0,4.5H56.029L49.68,0" transform="translate(36.454 2.738)" fill="#00e676" opacity="0.4"/>
    <path id="Fill_90" data-name="Fill 90" d="M122.78,128.093H6.155a1.37,1.37,0,0,1-1.368-1.369v-79.3H1.368A1.371,1.371,0,0,1,0,46.052V26.221a13.921,13.921,0,0,1,13.9-13.91H24.56L41.577.251A1.382,1.382,0,0,1,42.369,0h44.2a1.376,1.376,0,0,1,.791.251L96.9,7.012l7.476,5.3H115.04a13.92,13.92,0,0,1,13.9,13.91V46.052a1.372,1.372,0,0,1-1.369,1.371h-3.422v79.3A1.37,1.37,0,0,1,122.78,128.093ZM95.822,47.423v77.931h25.589V47.423ZM49.56,88.47H79.373a6.261,6.261,0,0,1,6.252,6.25v30.635h7.459V15.05H35.851v110.3h7.461V94.726A6.259,6.259,0,0,1,49.56,88.47Zm16.276,2.74v34.144H82.886V94.726a3.518,3.518,0,0,0-3.513-3.516Zm-16.276,0a3.517,3.517,0,0,0-3.511,3.516v30.629H63.1V91.21ZM7.524,47.423v77.931h25.59V47.423Zm88.3-32.373V44.683H126.2V26.221a11.178,11.178,0,0,0-11.161-11.17Zm-81.921,0A11.179,11.179,0,0,0,2.738,26.221V44.683H33.114V15.05ZM42.8,2.738l-6.35,4.5-7.161,5.073H99.642L92.482,7.238l-6.348-4.5H42.8Z" fill="#00e676"/>
    <path id="Fill_91" data-name="Fill 91" d="M57.233,110.305H49.774V79.67a6.261,6.261,0,0,0-6.252-6.251H13.711a6.259,6.259,0,0,0-6.249,6.256V110.3H0V0H57.233V110.3ZM39.485,38.1a6.26,6.26,0,0,0-6.252,6.254.027.027,0,0,0,0,.006.041.041,0,0,1,0,.011V63.049A1.37,1.37,0,0,0,34.6,64.419h13.8a1.37,1.37,0,0,0,1.367-1.369v-18.7A6.261,6.261,0,0,0,43.522,38.1Zm-25.774,0a6.258,6.258,0,0,0-6.249,6.254V63.049a1.371,1.371,0,0,0,1.369,1.369h13.8A1.37,1.37,0,0,0,24,63.049V44.356a6.259,6.259,0,0,0-6.25-6.254ZM39.485,6.342a6.259,6.259,0,0,0-6.252,6.253.028.028,0,0,0,0,.008.036.036,0,0,1,0,.01V31.287a1.371,1.371,0,0,0,1.368,1.37h13.8a1.37,1.37,0,0,0,1.367-1.37v-18.7a6.261,6.261,0,0,0-6.252-6.251Zm-25.774,0a6.258,6.258,0,0,0-6.249,6.253V31.287a1.371,1.371,0,0,0,1.369,1.37h13.8A1.371,1.371,0,0,0,24,31.287V12.594a6.258,6.258,0,0,0-6.25-6.253Z" transform="translate(35.85 15.05)" fill="#00e676" opacity="0.4"/>
    <path id="Fill_92" data-name="Fill 92" d="M15.169,19.411H1.368A1.37,1.37,0,0,1,0,18.041V6.253A6.257,6.257,0,0,1,6.247,0H10.29a6.257,6.257,0,0,1,6.248,6.253V18.041A1.37,1.37,0,0,1,15.169,19.411ZM8.267,4.883A1.37,1.37,0,0,1,9.636,6.253V16.671H13.8V6.245a3.52,3.52,0,0,0-3.5-3.509H6.239a3.52,3.52,0,0,0-3.5,3.515v10.42H6.9V6.253A1.37,1.37,0,0,1,8.267,4.883Z" transform="translate(11.947 21.392)" fill="#00e676"/>
    <path id="Fill_93" data-name="Fill 93" d="M15.17,19.411H1.368A1.37,1.37,0,0,1,0,18.041V6.253A6.257,6.257,0,0,1,6.248,0h4.043a6.257,6.257,0,0,1,6.248,6.253V18.041A1.37,1.37,0,0,1,15.17,19.411ZM8.267,4.883A1.371,1.371,0,0,1,9.637,6.253V16.671H13.8V6.253a3.521,3.521,0,0,0-3.5-3.517H6.24a3.522,3.522,0,0,0-3.5,3.509V16.671H6.9V6.253A1.37,1.37,0,0,1,8.267,4.883Z" transform="translate(100.239 21.392)" fill="#00e676"/>
    <path id="Fill_94" data-name="Fill 94" d="M15.169,19.413H1.368A1.37,1.37,0,0,1,0,18.043V6.26A6.261,6.261,0,0,1,6.247,0H10.29a6.259,6.259,0,0,1,6.248,6.256V18.043A1.37,1.37,0,0,1,15.169,19.413ZM8.267,4.885a1.371,1.371,0,0,1,1.368,1.37V16.673H13.8V6.25a3.518,3.518,0,0,0-3.5-3.511H6.239a3.517,3.517,0,0,0-3.5,3.514v10.42H6.9V6.256A1.371,1.371,0,0,1,8.267,4.885Z" transform="translate(11.947 53.15)" fill="#00e676"/>
    <path id="Fill_95" data-name="Fill 95" d="M15.17,19.413H1.368A1.37,1.37,0,0,1,0,18.043V6.26A6.261,6.261,0,0,1,6.248,0h4.029l.015,0a6.259,6.259,0,0,1,6.248,6.256V18.043A1.37,1.37,0,0,1,15.17,19.413ZM8.267,4.885a1.371,1.371,0,0,1,1.369,1.37V16.673H13.8V6.256a3.521,3.521,0,0,0-3.5-3.517H6.24a3.518,3.518,0,0,0-3.5,3.514v10.42H6.9V6.256A1.371,1.371,0,0,1,8.267,4.885Z" transform="translate(100.239 53.15)" fill="#00e676"/>
    <path id="Fill_96" data-name="Fill 96" d="M15.173,26.316H1.371A1.371,1.371,0,0,1,0,24.946V6.27a.036.036,0,0,0,0-.01.028.028,0,0,1,0-.008A6.26,6.26,0,0,1,6.253,0H10.29a6.26,6.26,0,0,1,6.251,6.251v18.7A1.37,1.37,0,0,1,15.173,26.316Zm-6.9-21.1A1.369,1.369,0,0,1,9.639,6.583V23.576H13.8V6.253a3.521,3.521,0,0,0-3.5-3.517H6.243a3.524,3.524,0,0,0-3.5,3.507V23.576H6.9V6.583A1.369,1.369,0,0,1,8.27,5.216Z" transform="translate(69.083 21.392)" fill="#00e676"/>
    <path id="Fill_97" data-name="Fill 97" d="M15.171,26.316H1.369A1.371,1.371,0,0,1,0,24.946V6.253A6.258,6.258,0,0,1,6.249,0h4.042A6.258,6.258,0,0,1,16.54,6.253V24.946A1.371,1.371,0,0,1,15.171,26.316Zm-6.9-21.1A1.37,1.37,0,0,1,9.641,6.583V23.576H13.8V6.244a3.521,3.521,0,0,0-3.5-3.508H6.241a3.522,3.522,0,0,0-3.5,3.517V23.576H6.9V6.583A1.369,1.369,0,0,1,8.271,5.216Z" transform="translate(43.312 21.392)" fill="#00e676"/>
    <path id="Fill_98" data-name="Fill 98" d="M15.173,26.316H1.371A1.37,1.37,0,0,1,0,24.947V6.27a.036.036,0,0,0,0-.01.027.027,0,0,1,0-.007A6.26,6.26,0,0,1,6.253,0H10.29a6.26,6.26,0,0,1,6.251,6.251v18.7A1.37,1.37,0,0,1,15.173,26.316Zm-6.9-21.1A1.371,1.371,0,0,1,9.639,6.585V23.576H13.8V6.256a3.524,3.524,0,0,0-3.5-3.518H6.243a3.524,3.524,0,0,0-3.5,3.5V23.576H6.9V6.585A1.371,1.371,0,0,1,8.27,5.214Z" transform="translate(69.083 53.152)" fill="#00e676"/>
    <path id="Fill_99" data-name="Fill 99" d="M15.171,26.316H1.369A1.371,1.371,0,0,1,0,24.947V6.254A6.258,6.258,0,0,1,6.249,0h4.042A6.258,6.258,0,0,1,16.54,6.254V24.947A1.37,1.37,0,0,1,15.171,26.316Zm-6.9-21.1A1.372,1.372,0,0,1,9.641,6.585V23.576H13.8V6.248a3.524,3.524,0,0,0-3.5-3.51H6.241a3.522,3.522,0,0,0-3.5,3.516V23.576H6.9V6.585A1.371,1.371,0,0,1,8.271,5.214Z" transform="translate(43.312 53.152)" fill="#00e676"/>
    <path id="Fill_100" data-name="Fill 100" d="M15.169,19.411H1.368A1.37,1.37,0,0,1,0,18.042V6.257A6.259,6.259,0,0,1,6.247,0H10.29a6.257,6.257,0,0,1,6.248,6.253v11.79A1.37,1.37,0,0,1,15.169,19.411ZM8.267,4.884A1.37,1.37,0,0,1,9.636,6.253V16.672H13.8V6.253a3.52,3.52,0,0,0-3.5-3.515H6.237a3.517,3.517,0,0,0-3.5,3.513V16.672H6.9V6.253A1.37,1.37,0,0,1,8.267,4.884Z" transform="translate(11.947 76.683)" fill="#00e676"/>
    <path id="Fill_101" data-name="Fill 101" d="M15.17,19.411H1.368A1.37,1.37,0,0,1,0,18.042V6.257A6.26,6.26,0,0,1,6.248,0h4.043a6.257,6.257,0,0,1,6.248,6.253v11.79A1.37,1.37,0,0,1,15.17,19.411ZM8.267,4.884A1.37,1.37,0,0,1,9.637,6.253V16.671H13.8V6.251a3.519,3.519,0,0,0-3.5-3.513H6.238a3.518,3.518,0,0,0-3.5,3.513v10.42H6.9V6.253A1.37,1.37,0,0,1,8.267,4.884Z" transform="translate(100.239 76.683)" fill="#00e676"/>
    <path id="Fill_102" data-name="Fill 102" d="M15.169,19.412H1.368A1.37,1.37,0,0,1,0,18.042V6.254A6.257,6.257,0,0,1,6.247,0H10.29a6.258,6.258,0,0,1,6.248,6.254V18.042A1.37,1.37,0,0,1,15.169,19.412ZM8.267,4.884A1.37,1.37,0,0,1,9.636,6.254V16.672H13.8V6.254a3.522,3.522,0,0,0-3.5-3.515H6.237a3.517,3.517,0,0,0-3.5,3.511V16.672H6.9V6.254A1.37,1.37,0,0,1,8.267,4.884Z" transform="translate(11.947 100.213)" fill="#00e676"/>
    <path id="Fill_103" data-name="Fill 103" d="M15.17,19.412H1.368A1.37,1.37,0,0,1,0,18.042V6.254A6.258,6.258,0,0,1,6.248,0h4.043a6.258,6.258,0,0,1,6.248,6.254V18.042A1.37,1.37,0,0,1,15.17,19.412ZM8.267,4.884A1.371,1.371,0,0,1,9.637,6.254V16.671H13.8V6.25a3.519,3.519,0,0,0-3.5-3.511H6.238a3.518,3.518,0,0,0-3.5,3.511V16.671H6.9V6.254A1.37,1.37,0,0,1,8.267,4.884Z" transform="translate(100.239 100.213)" fill="#00e676"/>
    <path id="Fill_104" data-name="Fill 104" d="M0,2.543H25.59V0H0Z" transform="translate(7.523 47.423)" fill="#00e676" opacity="0.4"/>
    <path id="Fill_105" data-name="Fill 105" d="M0,2.543H25.589V0H0Z" transform="translate(95.821 47.423)" fill="#00e676" opacity="0.4"/>
  </g>
</svg>
