<svg xmlns="http://www.w3.org/2000/svg" width="140" height="128" viewBox="0 0 140 128">
  <g id="mobe" transform="translate(0)">
    <g id="Group_11" data-name="Group 11" transform="translate(0 0)">
      <path id="Fill_119" data-name="Fill 119" d="M55.817,88.73H53.955a1.472,1.472,0,1,1,0-2.944h1.862c2.814,0,5.1-1.982,5.1-4.419V15.6a.1.1,0,0,0,0-.015.116.116,0,0,1,0-.018,3.884,3.884,0,0,0-.02-.388c0-.027-.008-.055-.013-.082s-.012-.069-.016-.1l0-.023c-.011-.066-.022-.134-.037-.2s-.036-.14-.056-.207l0-.013a1.459,1.459,0,0,0-.053-.176c-.018-.059-.041-.118-.064-.175l-.022-.056c-.021-.053-.042-.1-.064-.156-.036-.077-.074-.152-.116-.229l-.03-.055c-.015-.028-.03-.056-.046-.082-.038-.063-.077-.124-.116-.186l-.026-.042c-.028-.042-.058-.084-.091-.127l-.028-.038c-.044-.059-.089-.12-.137-.18l-.017-.02c-.027-.031-.054-.063-.083-.094-.073-.084-.136-.153-.194-.211s-.137-.137-.208-.2c-.093-.081-.194-.164-.319-.259l-.015-.013c-.012-.01-.022-.019-.036-.029-.107-.077-.223-.154-.353-.234a.234.234,0,0,1-.025-.017.224.224,0,0,0-.029-.019c-.1-.06-.2-.111-.311-.166l-.017-.009-.052-.028c-.019-.011-.038-.021-.057-.03-.048-.022-.1-.043-.149-.063l-.077-.031a5.839,5.839,0,0,0-1.416-.386V71.857a7.412,7.412,0,0,1-.25,1.9c-.071.254-.131.442-.2.609-.068.186-.153.388-.258.619L55.9,75l-.009.015c-.083.171-.177.346-.287.535a.757.757,0,0,1-.057.094c-.15.239-.28.421-.377.554a7.292,7.292,0,0,1-5.821,2.915H7.272a7.23,7.23,0,0,1-4.325-1.425v3.669c0,2.435,2.286,4.419,5.1,4.422h2.585a1.472,1.472,0,1,1,0,2.944H8.063l-.011,0C3.615,88.73,0,85.429,0,81.372V7.262A7.273,7.273,0,0,1,7.268,0H49.35a7.216,7.216,0,0,1,5.133,2.126,7.807,7.807,0,0,1,.655.748.265.265,0,0,1,.035.048,6.128,6.128,0,0,1,.36.526.549.549,0,0,0,.045.069c.1.177.2.362.31.567l0,.006a.27.27,0,0,0,.012.029c.024.048.046.1.068.147s.031.07.048.1l.021.048c.052.123.1.242.137.355.062.164.121.35.186.585a7.183,7.183,0,0,1,.253,1.905v1.01s0,0,.009,0c.038,0,.075.006.113.01l.032,0c.086.01.175.02.261.032l.029,0,.061.01h.009c.1.015.2.031.305.052a.176.176,0,0,0,.034,0,8.292,8.292,0,0,1,3.984,1.946c.107.095.2.185.282.269a7.17,7.17,0,0,1,1.64,2.455.064.064,0,0,1,.013.023c.033.086.067.178.108.3l.009.025a.332.332,0,0,1,.012.037c.027.08.05.157.074.239l.008.027.007.023c.007.023.014.046.02.07.024.079.044.157.062.239l0,.011c.009.037.016.071.025.106.017.081.032.162.043.224.009.044.017.092.025.134.011.071.02.142.029.213,0,.029.007.059.012.089s.006.041.009.061c0,.039.007.079.01.119l.008.09c0,.031,0,.062.008.093l.005.058c0,.036,0,.071,0,.107s0,.1,0,.143,0,.073,0,.111V81.362C63.869,85.425,60.257,88.73,55.817,88.73ZM7.268,2.945A4.324,4.324,0,0,0,2.947,7.262v64.6a4.325,4.325,0,0,0,4.325,4.315H49.35a4.278,4.278,0,0,0,3.46-1.729c.06-.079.126-.176.214-.314l.012-.018.008-.012c.062-.1.127-.223.2-.363s.119-.277.164-.4.078-.224.112-.35a4.279,4.279,0,0,0,.147-1.131V7.264a4.259,4.259,0,0,0-.147-1.129c-.032-.119-.066-.226-.107-.337l0-.013a.123.123,0,0,1-.009-.028L53.378,5.7c-.013-.034-.026-.068-.042-.1l-.021-.053c-.018-.042-.037-.083-.057-.125L53.247,5.4c-.065-.129-.125-.243-.186-.348l-.007-.009a.043.043,0,0,0-.008-.01,3.838,3.838,0,0,0-.216-.325l-.018-.022a4.6,4.6,0,0,0-.412-.476,4.3,4.3,0,0,0-3.05-1.262Z" transform="translate(75.984 8.661)" fill="#00e676"/>
      <path id="Fill_120" data-name="Fill 120" d="M38.654,0H1.475a1.473,1.473,0,1,0,0,2.945H38.654a1.473,1.473,0,1,0,0-2.945" transform="translate(84.229 54.812)" fill="#00e676"/>
      <path id="Fill_121" data-name="Fill 121" d="M38.654,0H1.475a1.472,1.472,0,1,0,0,2.944H38.654a1.472,1.472,0,1,0,0-2.944" transform="translate(84.229 60.303)" fill="#00e676"/>
      <path id="Fill_122" data-name="Fill 122" d="M38.654,0H1.475a1.472,1.472,0,1,0,0,2.944H38.654a1.472,1.472,0,1,0,0-2.944" transform="translate(84.229 65.794)" fill="#00e676"/>
      <path id="Fill_123" data-name="Fill 123" d="M38.654,0H1.475a1.474,1.474,0,1,0,0,2.948H38.654a1.474,1.474,0,1,0,0-2.948" transform="translate(84.229 71.283)" fill="#00e676"/>
      <path id="Fill_124" data-name="Fill 124" d="M38.654,0H1.475a1.471,1.471,0,1,0,0,2.943H38.654a1.471,1.471,0,1,0,0-2.943" transform="translate(84.229 76.774)" fill="#00e676"/>
      <path id="Fill_125" data-name="Fill 125" d="M38.655,35.543H1.475A1.475,1.475,0,0,1,0,34.071V1.472A1.475,1.475,0,0,1,1.475,0H38.655a1.474,1.474,0,0,1,1.474,1.472v32.6A1.474,1.474,0,0,1,38.655,35.543ZM32.446,11.516h0L20.257,32.6H37.182V19.71l-4.736-8.194ZM20.061,17.027h0l-9,15.571h5.793l6.1-10.558-2.9-5.013ZM2.948,2.944V32.6H7.66L18.784,13.346a1.488,1.488,0,0,1,1.277-.736,1.473,1.473,0,0,1,1.275.736l3.322,5.75L31.169,7.836a1.474,1.474,0,0,1,2.552,0l3.461,5.985V2.944Z" transform="translate(84.23 16.723)" fill="#00e676"/>
      <path id="Fill_126" data-name="Fill 126" d="M4.712,29.654H0V0H34.234V10.877L30.773,4.892a1.474,1.474,0,0,0-2.552,0L21.709,16.153,18.387,10.4a1.475,1.475,0,0,0-1.277-.736,1.49,1.49,0,0,0-1.276.736L4.713,29.654ZM7.4,2.218a5.068,5.068,0,1,0,5.071,5.067A5.077,5.077,0,0,0,7.4,2.218Z" transform="translate(87.178 19.667)" fill="#00e676" opacity="0.4"/>
      <path id="Fill_127" data-name="Fill 127" d="M5.076,10.137a5.068,5.068,0,1,1,5.071-5.07A5.079,5.079,0,0,1,5.076,10.137Zm0-7.193A2.124,2.124,0,1,0,7.2,5.067,2.128,2.128,0,0,0,5.076,2.944Z" transform="translate(89.502 21.884)" fill="#00e676"/>
      <path id="Fill_128" data-name="Fill 128" d="M56.934,106.054H9.331A9.454,9.454,0,0,1,0,96.5V90.829a.434.434,0,0,1,.006-.062c0-.016,0-.033.006-.049s0-.037-.006-.054A.446.446,0,0,1,0,90.6V9.548A9.449,9.449,0,0,1,9.325,0H56.934a9.452,9.452,0,0,1,9.331,9.548V90.6a.506.506,0,0,1-.006.065c0,.016,0,.032-.005.048s0,.036.005.053a.52.52,0,0,1,.005.063V96.5A9.454,9.454,0,0,1,56.934,106.054ZM2.947,92.073V96.5a6.508,6.508,0,0,0,6.384,6.61h47.6a6.508,6.508,0,0,0,6.384-6.61v-4.43Zm0-74.557V89.129H63.318l0-71.613ZM9.325,2.945a6.5,6.5,0,0,0-6.378,6.6v5.024H63.318V9.548a6.5,6.5,0,0,0-6.384-6.6Z" transform="translate(5.471)" fill="#00e676"/>
      <path id="Fill_129" data-name="Fill 129" d="M53.987,11.04H6.384A6.508,6.508,0,0,1,0,4.43V0H60.371V4.43A6.508,6.508,0,0,1,53.987,11.04ZM23.081,3.875a1.471,1.471,0,1,0,0,2.942H37.29a1.471,1.471,0,1,0,0-2.942Z" transform="translate(8.419 92.072)" fill="#00e676" opacity="0.4"/>
      <path id="Fill_130" data-name="Fill 130" d="M60.371,11.627H0V6.6A6.5,6.5,0,0,1,6.378,0H53.987a6.5,6.5,0,0,1,6.384,6.6v5.023ZM23.081,4.757a1.472,1.472,0,1,0,0,2.944H37.29a1.472,1.472,0,1,0,0-2.944Z" transform="translate(8.419 2.945)" fill="#00e676" opacity="0.4"/>
      <path id="Fill_131" data-name="Fill 131" d="M17.156,1.47a1.473,1.473,0,0,1-1.474,1.472H1.474A1.471,1.471,0,1,1,1.474,0H15.682a1.469,1.469,0,0,1,1.474,1.47" transform="translate(30.026 95.948)" fill="#00e676"/>
      <path id="Fill_132" data-name="Fill 132" d="M17.156,1.472a1.473,1.473,0,0,1-1.474,1.472H1.474A1.472,1.472,0,1,1,1.474,0H15.682a1.473,1.473,0,0,1,1.474,1.472" transform="translate(30.026 7.703)" fill="#00e676"/>
      <path id="Fill_133" data-name="Fill 133" d="M48.4,0H1.472a1.473,1.473,0,0,0,0,2.945H48.4A1.473,1.473,0,1,0,48.4,0" transform="translate(13.666 59.913)" fill="#00e676"/>
      <path id="Fill_134" data-name="Fill 134" d="M48.4,0H1.472a1.472,1.472,0,1,0,0,2.944H48.4A1.472,1.472,0,1,0,48.4,0" transform="translate(13.666 65.406)" fill="#00e676"/>
      <path id="Fill_135" data-name="Fill 135" d="M48.4,0H1.472a1.472,1.472,0,1,0,0,2.944H48.4A1.472,1.472,0,1,0,48.4,0" transform="translate(13.666 70.894)" fill="#00e676"/>
      <path id="Fill_136" data-name="Fill 136" d="M48.4,0H1.472a1.473,1.473,0,0,0,0,2.945H48.4A1.473,1.473,0,1,0,48.4,0" transform="translate(13.666 76.385)" fill="#00e676"/>
      <path id="Fill_137" data-name="Fill 137" d="M48.4,0H1.472a1.471,1.471,0,1,0,0,2.943H48.4A1.471,1.471,0,1,0,48.4,0" transform="translate(13.666 81.875)" fill="#00e676"/>
      <path id="Fill_138" data-name="Fill 138" d="M48.4,35.541H1.474A1.474,1.474,0,0,1,0,34.069V1.471A1.474,1.474,0,0,1,1.474,0H48.4a1.474,1.474,0,0,1,1.474,1.471v32.6A1.474,1.474,0,0,1,48.4,35.541ZM2.948,2.943V32.6h43.98V2.943Z" transform="translate(13.665 21.188)" fill="#00e676"/>
      <path id="Fill_139" data-name="Fill 139" d="M43.98,29.654H0V0H43.98V29.653ZM16.456,8.129A1.476,1.476,0,0,0,14.981,9.6V22.37a1.474,1.474,0,0,0,2.21,1.276L28.264,17.26a1.469,1.469,0,0,0,0-2.549L17.192,8.327A1.466,1.466,0,0,0,16.456,8.129Z" transform="translate(16.613 24.13)" fill="#00e676" opacity="0.4"/>
      <path id="Fill_140" data-name="Fill 140" d="M1.472,15.714A1.473,1.473,0,0,1,0,14.241V1.472A1.472,1.472,0,0,1,2.21.2L13.282,6.581a1.469,1.469,0,0,1,0,2.549L2.21,15.517A1.483,1.483,0,0,1,1.472,15.714ZM2.947,4.022v7.669L9.6,7.857Z" transform="translate(31.595 32.259)" fill="#00e676"/>
      <path id="Fill_141" data-name="Fill 141" d="M29.638,35.053a8.291,8.291,0,0,1-8.174-6.829H16.486A8.309,8.309,0,0,1,0,26.754V8.3a8.309,8.309,0,0,1,16.618,0,1.474,1.474,0,0,1-2.948,0,5.361,5.361,0,0,0-10.722,0V20.42a8.307,8.307,0,0,1,13.538,4.861h4.978A8.3,8.3,0,0,1,35,20.42V8.3a5.361,5.361,0,0,0-10.723,0,1.474,1.474,0,0,1-2.948,0,8.31,8.31,0,0,1,16.619,0V26.754A8.318,8.318,0,0,1,29.638,35.053Zm0-13.653A5.355,5.355,0,1,0,35,26.754,5.365,5.365,0,0,0,29.638,21.4ZM8.31,21.4a5.355,5.355,0,1,0,5.36,5.355A5.364,5.364,0,0,0,8.31,21.4Z" transform="translate(89.502 89.914)" fill="#00e676"/>
      <path id="Fill_142" data-name="Fill 142" d="M10.721,5.355A5.36,5.36,0,1,1,5.36,0a5.363,5.363,0,0,1,5.36,5.355" transform="translate(113.779 111.314)" fill="#00e676" opacity="0.4"/>
      <path id="Fill_143" data-name="Fill 143" d="M10.722,5.355A5.361,5.361,0,1,1,5.362,0a5.362,5.362,0,0,1,5.36,5.355" transform="translate(92.451 111.314)" fill="#00e676" opacity="0.4"/>
      <path id="Fill_144" data-name="Fill 144" d="M74.879,18.9a4.3,4.3,0,0,1-3.752-2.212H12.68a1.259,1.259,0,0,1-.246-.025.12.12,0,0,0-.035-.006h-.007a1.8,1.8,0,0,1-.236-.076l-.02-.008-.036-.015-.015-.006c-.019-.008-.038-.016-.054-.025L.795,10.758a.066.066,0,0,1-.017-.011l-.007-.005a1.375,1.375,0,0,1-.411-.325L.349,10.4a.363.363,0,0,0-.036-.042C.279,10.314.24,10.257.2,10.2a.343.343,0,0,0-.019-.031l-.014-.022a.035.035,0,0,0-.007-.013.03.03,0,0,1,0-.008.279.279,0,0,1-.024-.059c0-.013-.008-.026-.014-.038L.1,9.983a.667.667,0,0,1-.041-.11,1.068,1.068,0,0,1-.033-.141A1.367,1.367,0,0,1,0,9.591.756.756,0,0,1,0,9.48V9.421a.822.822,0,0,1,0-.115c.006-.047.015-.1.023-.141a.99.99,0,0,1,.033-.138.637.637,0,0,1,.037-.1c.008-.018.015-.035.022-.052l.013-.035A.492.492,0,0,1,.157,8.78a.039.039,0,0,1,.008-.014l0-.005a.911.911,0,0,1,.073-.115L.266,8.61l.021-.033a.613.613,0,0,1,.042-.061,1.32,1.32,0,0,1,.1-.1l.028-.029a.528.528,0,0,1,.078-.071.361.361,0,0,1,.075-.051l.016-.009a1.583,1.583,0,0,1,.152-.1A.029.029,0,0,0,.79,8.144l0,0L12.032,2.377l.018-.008a.115.115,0,0,0,.026-.013q.075-.027.151-.058a1.337,1.337,0,0,1,.133-.038.727.727,0,0,1,.113-.021l.022,0c.053-.008.1-.014.158-.019l.026,0,.024,0H71.126a4.289,4.289,0,0,1,7.5,0h5.405a1.474,1.474,0,0,1,1.472,1.472V15.217a1.472,1.472,0,0,1-1.474,1.468h-5.4A4.3,4.3,0,0,1,74.879,18.9Zm0-15.953a1.345,1.345,0,0,0-1.344,1.343V14.61a1.343,1.343,0,0,0,2.648.316.126.126,0,0,1,.007-.03.135.135,0,0,0,.005-.02,1.29,1.29,0,0,0,.028-.266V4.287a1.214,1.214,0,0,0-.028-.258A.179.179,0,0,0,76.189,4a.175.175,0,0,1-.006-.028A1.336,1.336,0,0,0,74.879,2.944ZM79.17,5.155v8.586h3.391V5.155Zm-64.993,0v8.586h56.41V5.155ZM11.23,6.1,4.693,9.45l6.537,3.357Z" transform="translate(0 108.282)" fill="#00e676"/>
      <path id="Fill_145" data-name="Fill 145" d="M0,8.585H3.392V0H0Z" transform="translate(79.17 113.438)" fill="#00e676" opacity="0.4"/>
      <path id="Fill_146" data-name="Fill 146" d="M56.41,8.586H0V0H56.41V8.584ZM3.136,2.819a1.473,1.473,0,1,0,0,2.945h50.09a1.473,1.473,0,1,0,0-2.945Z" transform="translate(14.178 113.438)" fill="#00e676" opacity="0.4"/>
      <path id="Fill_147" data-name="Fill 147" d="M53.037,1.474a1.469,1.469,0,0,1-1.474,1.471H1.474A1.473,1.473,0,1,1,1.474,0h50.09a1.474,1.474,0,0,1,1.474,1.474" transform="translate(15.84 116.257)" fill="#00e676"/>
    </g>
  </g>
</svg>
